<?xml version="1.0" standalone="no"?>
<svg xmlns="http://www.w3.org/2000/svg" viewBox="0 0 184.83984375 57.9453125" width="184.83984375" height="57.9453125"><rect fill="none" stroke="#ffffff" stroke-width="4" width="180.83984375" height="53.9453125" x="2" y="2"></rect><g fill="#a90000" color="#a90000" transform="translate(138.895 12.607) scale(0.6061663)"><svg width="56.0" height="54.0" x="0.0" y="0.0" viewBox="0 0 56 54"><path fill="currentColor" fill-rule="evenodd" d="M20.14 11.806c.69 0 1.248.302 1.248.676 0 .373-.559.676-1.248.676-.69 0-1.248-.303-1.248-.676 0-.374.559-.676 1.248-.676m20.405 21.523l.534.01c5.6.225 9.9 4.467 9.9 10.137 0 0 .297 5.7-3.224 9.674-.285.323-.808.047-.72-.374.324-1.532.214-3.749-2.713-4.567-2.838-.792-5.67-.042-8.392.814-5.072 1.593-10.064 4.536-15.43 4.937-2.73.204-5.532-.369-7.9-1.742-4.398-2.548-6.242-7.656-6.572-12.497-.023-.334-.097-1.047.156-1.103.367-.077.692.66.855.874.337.445.72.855 1.141 1.221 2.783 2.425 6.471 2.177 9.853 1.42 3.721-.832 6.965-2.528 10.252-4.388 3.181-1.8 6.462-3.691 10.13-4.252.88-.135 1.774-.19 2.664-.154zm1.404 5.878c-1.67-.286-3.379-.148-5.01.232-1.627.412-3.168 1.058-4.6 1.858a29.406 29.406 0 0 0-4.054 2.738c1.534-.572 3.004-1.25 4.477-1.864 1.477-.602 2.954-1.16 4.47-1.518a16.128 16.128 0 0 1 4.608-.477 13.26 13.26 0 0 1 4.59 1.103c-1.223-1.096-2.818-1.798-4.481-2.072zM21.752 0c1.066 0 3.484 3.12 3.484 3.12S32.44 7.49 35.533 15.653c3.094 8.165-3.068 15.965-3.068 15.965a21.32 21.32 0 0 0 .759-4.477c.047-.834.038-1.671-.026-2.503-.022-.278-.138-.71-.229-1.134-.056-.262-.4-.307-.537-.077a4.679 4.679 0 0 1-1.004 1.177c-.049-1.565-.206-3.147-.744-4.618-.462-1.262-1.228-2.444-2.29-3.253a.252.252 0 0 0-.401.243 4.672 4.672 0 0 1-.116 2.121c-1.659-1.66-3.973-2.53-6.294-2.886-1.924-.295-3.877-.266-5.827-.224-.377.008-.494.51-.164.692 1.58.875 3.253 1.227 5.08 1.589 2.24.444 4.149 1.495 5.5 3.366 2.03 2.809 1.345 9.595.963 12.34a2.533 2.533 0 0 1-1.21 1.827c-2.498 1.493-5.553 2.77-9.429 3.567-1.91.392-3.986.347-5.839-.3-.903-.315-1.758-.85-2.29-1.646-.653-.976-.749-2.253-.45-3.389.3-1.136.96-2.146 1.717-3.044 2.322-2.753 5.518-4.529 8.224-6.853 1.123-.964 2.342-2.005 2.822-3.471.023-.068.295-1.26.084-1.267-3.207-.114-8.018-1.093-9.7-4.246-.1-.185-.188-.397-.136-.6.065-.257.325-.407.56-.528 2.168-1.113 4.257-2.135 6.102-3.767a19.55 19.55 0 0 0 2.2-2.29c.297-.364 1.429-1.346 1.39-1.83 0-.001-.494-6.137.572-6.137z"></path></svg></g><path fill="#a90000" fill-rule="nonzero" d="M8.11 33.95L8.11 33.95Q7.32 33.95 6.42 33.82Q5.51 33.69 4.60 33.28Q3.69 32.87 2.86 32.12Q2.03 31.37 1.40 30.14Q0.76 28.91 0.38 27.10Q0 25.29 0 22.79L0 22.79L0 10.98Q0 8.46 0.39 6.67Q0.78 4.88 1.43 3.66Q2.07 2.44 2.91 1.72Q3.75 1.00 4.65 0.62Q5.55 0.23 6.44 0.12Q7.32 0 8.09 0L8.09 0Q10.08 0 11.42 0.56Q12.75 1.11 13.56 2.08Q14.38 3.05 14.72 4.34Q15.06 5.63 15.06 7.07L15.06 7.07Q15.06 8.14 14.95 9.05Q14.84 9.96 14.63 11.05L14.63 11.05L10.53 11.05L10.53 9.36Q10.53 6.60 9.92 5.23Q9.32 3.87 8.14 3.87L8.14 3.87Q7.44 3.87 6.91 4.14Q6.39 4.41 6.04 5.07Q5.68 5.72 5.50 6.80Q5.31 7.87 5.31 9.47L5.31 9.47L5.31 24.71Q5.31 26.27 5.46 27.30Q5.61 28.34 5.94 28.96Q6.27 29.59 6.81 29.85Q7.34 30.12 8.11 30.12L8.11 30.12Q8.59 30.12 9.04 29.89Q9.49 29.67 9.83 29.19Q10.18 28.71 10.38 27.98Q10.59 27.25 10.59 26.25L10.59 26.25L10.59 22.99L15.21 22.99L15.21 26.07Q15.21 30.10 13.38 32.01Q11.54 33.93 8.11 33.95ZM16.72 33.65L22.87 0.29L28.69 0.29L34.86 33.65L29.75 33.65L28.83 27.68L22.73 27.68L21.86 33.65L16.72 33.65ZM23.32 23.87L28.24 23.87L25.90 7.25L25.68 7.25L23.32 23.87ZM41.17 33.65L41.17 4.28L35.80 4.28L35.80 0.29L51.58 0.29L51.58 4.28L46.23 4.28L46.23 33.65L41.17 33.65ZM55 33.65L55 0.29L67.75 0.29L67.75 4.28L60.06 4.28L60.06 14.26L66.09 14.26L66.09 18.24L60.06 18.24L60.06 33.65L55 33.65ZM71.13 33.65L71.13 0.29L76.19 0.29L76.19 29.67L83.09 29.67L83.09 33.65L71.13 33.65ZM86.29 33.65L86.29 0.29L91.35 0.29L91.35 33.65L86.29 33.65ZM94.84 33.65L100.94 16.86L94.84 0.29L100.25 0.29L103.36 10.96L103.55 10.96L106.66 0.29L111.89 0.29L105.78 16.88L111.89 33.65L106.68 33.65L103.52 22.93L103.18 22.93L99.88 33.65L94.84 33.65Z" transform="translate(12 12) scale(1)"></path></svg>