<?xml version="1.0" standalone="no"?>
<svg xmlns="http://www.w3.org/2000/svg" viewBox="0 0 185.368 52" width="185.368" height="52"><rect fill="none" stroke="#d61216" stroke-width="3" width="182.368" height="49" x="1.5" y="1.5"></rect><g fill="#ffffff" color="#ffffff" transform="translate(12, 11.999999999999998) scale(0.2800001)"><svg width="100.0" height="100.0" x="0.0" y="0.0" viewBox="0 0 100 100"><path d="M89.1,26.8H49.2C55.1,21.1,61,15.5,66.9,9.9c1.6-1.6-0.8-4-2.5-2.5c-6.4,6.2-12.9,12.4-19.3,18.5c-3.1-4-6.3-8.1-9.4-12.1  c-1.4-1.8-3.8,0.7-2.5,2.5c2.7,3.5,5.5,7,8.2,10.5H10.9c-3.3,0-5.9,2.7-5.9,5.9v50.4c0,3.3,2.7,5.9,5.9,5.9h1.1c0,1.1,0,2.3,0,3.4  c0,2.2,3.5,2.3,3.5,0c0-1.1,0-2.3,0-3.4h68.9c0,1.1,0,2.3,0,3.4c0,2.2,3.5,2.3,3.5,0c0-1.1,0-2.3,0-3.4h1.1c3.3,0,5.9-2.7,5.9-5.9  V32.7C95,29.4,92.3,26.8,89.1,26.8z M91.5,83.1c0,1.3-1.1,2.4-2.4,2.4H10.9c-1.3,0-2.4-1.1-2.4-2.4V32.7c0-1.3,1.1-2.4,2.4-2.4h78.1  c1.3,0,2.4,1.1,2.4,2.4V83.1z"></path><path d="M68.2,35.9H20.1c-3.3,0-5.9,2.7-5.9,5.9v33.7c0,3.3,2.7,5.9,5.9,5.9h48.1c3.3,0,5.9-2.7,5.9-5.9V41.9  C74.1,38.6,71.5,35.9,68.2,35.9z M70.6,75.5c0,1.3-1.1,2.4-2.4,2.4H20.1c-1.3,0-2.4-1.1-2.4-2.4V41.9c0-1.3,1.1-2.4,2.4-2.4h48.1  c1.3,0,2.4,1.1,2.4,2.4V75.5z"></path><circle cx="84" cy="42.9" r="3.4"></circle><circle cx="84" cy="53.4" r="3.4"></circle><path d="M33,71.7c-2.3,0-5.1,0.5-7.3-0.1c-3.2-0.9-2.3-5.7-2.3-8.2c0-1.4-2.1-1.4-2.1,0c0,3.1-0.8,7.3,2.2,9.4c2.5,1.8,6.7,1,9.5,1  C34.3,73.8,34.3,71.7,33,71.7z"></path></svg></g><path fill="#ffffff" fill-rule="nonzero" d="M13.20 0.07Q14.50 0.07 15.48 0L15.48 0Q15.48 0.60 15.36 1.03L15.36 1.03Q14.81 1.03 14.51 1.34Q14.21 1.66 14.08 2.39Q13.94 3.12 13.94 4.44L13.94 4.44L13.94 16.30Q13.56 16.44 12.91 16.44L12.91 16.44L3 3.50L3 11.81Q3 13.20 3.14 13.94Q3.29 14.69 3.65 15.01Q4.01 15.34 4.66 15.34L4.66 15.34Q4.78 15.70 4.78 16.37L4.78 16.37Q3.70 16.30 2.40 16.30L2.40 16.30Q0.91 16.30 0 16.37L0 16.37Q0 15.70 0.12 15.34L0.12 15.34Q0.77 15.34 1.13 15.01Q1.49 14.69 1.63 13.94Q1.78 13.20 1.78 11.81L1.78 11.81L1.78 1.90L1.68 1.78Q1.34 1.37 1.04 1.22Q0.74 1.08 0.12 1.03L0.12 1.03Q0 0.60 0 0L0 0Q0.72 0.07 1.78 0.07L1.78 0.07Q2.74 0.07 3.38 0L3.38 0L12.72 12.38L12.72 4.44Q12.72 3.10 12.58 2.38Q12.43 1.66 12.07 1.34Q11.71 1.03 11.06 1.03L11.06 1.03Q10.94 0.34 10.94 0L10.94 0Q11.98 0.07 13.20 0.07L13.20 0.07ZM28.08 12.89Q28.73 13.01 29.14 13.42L29.14 13.42Q28.70 14.54 28.49 16.32L28.49 16.32L23.86 16.30Q20.40 16.30 18.29 16.34L18.29 16.34Q18.29 15.60 18.41 15.26L18.41 15.26Q19.01 15.22 19.31 15.07Q19.61 14.93 19.73 14.54Q19.85 14.16 19.85 13.39L19.85 13.39L19.85 7.08Q19.85 6.38 19.72 6.02Q19.58 5.66 19.28 5.52Q18.98 5.38 18.41 5.33L18.41 5.33Q18.29 4.97 18.29 4.25L18.29 4.25Q20.02 4.30 22.06 4.30L22.06 4.30Q26.47 4.30 27.96 4.25L27.96 4.25Q28.22 6.50 28.42 7.22L28.42 7.22Q28.01 7.49 27.34 7.49L27.34 7.49Q27.24 6.48 26.51 5.90Q25.78 5.33 23.93 5.33L23.93 5.33L22.06 5.33L22.06 9.74L23.26 9.74Q24.53 9.74 25.02 9.46Q25.51 9.17 25.54 8.40L25.54 8.40Q26.06 8.23 26.64 8.23L26.64 8.23Q26.59 8.83 26.59 10.25L26.59 10.25Q26.59 11.78 26.64 12.34L26.64 12.34Q25.99 12.34 25.58 12.19L25.58 12.19Q25.51 11.40 25.02 11.11Q24.53 10.82 23.26 10.82L23.26 10.82L22.06 10.82L22.06 13.34Q22.06 14.11 22.21 14.51Q22.37 14.90 22.76 15.06Q23.16 15.22 23.95 15.22L23.95 15.22L24.10 15.22Q25.49 15.22 26.24 14.98Q27 14.74 27.37 14.27Q27.74 13.80 28.08 12.89L28.08 12.89ZM43.08 4.25Q43.01 5.54 43.25 7.37L43.25 7.37Q42.74 7.58 42.07 7.58L42.07 7.58Q42.02 6.43 41.46 5.88Q40.90 5.33 39.70 5.33L39.70 5.33L38.64 5.33L38.64 13.56Q38.64 14.30 38.77 14.65Q38.90 15 39.25 15.14Q39.60 15.29 40.32 15.34L40.32 15.34Q40.44 15.62 40.44 16.34L40.44 16.34Q38.66 16.30 37.54 16.30L37.54 16.30Q36.14 16.30 34.56 16.34L34.56 16.34Q34.56 15.62 34.68 15.34L34.68 15.34Q35.40 15.29 35.77 15.14Q36.14 15 36.29 14.64Q36.43 14.28 36.43 13.56L36.43 13.56L36.43 5.33L35.45 5.33Q34.49 5.33 33.97 5.58Q33.46 5.83 33.22 6.29Q32.98 6.74 32.81 7.58L32.81 7.58Q32.04 7.58 31.68 7.37L31.68 7.37Q32.04 5.74 32.04 4.25L32.04 4.25Q33.29 4.30 37.54 4.30L37.54 4.30Q41.86 4.30 43.08 4.25L43.08 4.25ZM51.77 5.33L49.94 5.33L49.94 10.25L51.34 10.25Q52.61 10.25 53.10 9.96Q53.59 9.67 53.62 8.90L53.62 8.90Q54.12 8.74 54.70 8.74L54.70 8.74Q54.65 9.89 54.65 10.75L54.65 10.75Q54.65 11.69 54.70 12.84L54.70 12.84Q54.05 12.84 53.64 12.70L53.64 12.70Q53.57 11.88 53.09 11.59Q52.61 11.30 51.34 11.30L51.34 11.30L49.94 11.30L49.94 13.22Q49.94 14.35 50.38 14.78Q50.81 15.22 51.86 15.26L51.86 15.26Q51.98 15.62 51.98 16.34L51.98 16.34Q50.64 16.30 49.20 16.30L49.20 16.30Q47.38 16.30 46.18 16.34L46.18 16.34Q46.18 15.60 46.30 15.26L46.30 15.26Q47.14 15.22 47.44 14.87Q47.74 14.52 47.74 13.49L47.74 13.49L47.74 7.08Q47.74 6.38 47.62 6.02Q47.50 5.66 47.20 5.52Q46.90 5.38 46.30 5.33L46.30 5.33Q46.18 4.97 46.18 4.25L46.18 4.25Q48.10 4.30 49.92 4.30L49.92 4.30Q54.31 4.30 55.80 4.25L55.80 4.25Q55.97 6.29 56.23 7.22L56.23 7.22Q55.82 7.49 55.18 7.49L55.18 7.49Q55.08 6.48 54.35 5.90Q53.62 5.33 51.77 5.33L51.77 5.33ZM65.28 15.22Q66.41 15.22 67.07 14.99Q67.73 14.76 68.12 14.27Q68.52 13.78 68.88 12.89L68.88 12.89Q69.53 13.01 69.94 13.42L69.94 13.42Q69.50 14.54 69.29 16.32L69.29 16.32L65.04 16.30Q61.58 16.30 59.47 16.34L59.47 16.34Q59.47 15.60 59.59 15.26L59.59 15.26Q60.17 15.22 60.48 15.07Q60.79 14.93 60.92 14.54Q61.06 14.16 61.06 13.39L61.06 13.39L61.06 7.08Q61.06 6.38 60.92 6.02Q60.79 5.66 60.49 5.52Q60.19 5.38 59.59 5.33L59.59 5.33Q59.50 4.94 59.50 4.25L59.50 4.25Q61.22 4.30 62.16 4.30L62.16 4.30Q63.14 4.30 64.82 4.25L64.82 4.25Q64.82 4.97 64.70 5.33L64.70 5.33Q63.86 5.38 63.56 5.72Q63.26 6.07 63.26 7.10L63.26 7.10L63.26 13.34Q63.26 14.11 63.41 14.51Q63.55 14.90 63.95 15.06Q64.34 15.22 65.14 15.22L65.14 15.22L65.28 15.22ZM72.72 16.34Q72.72 15.60 72.84 15.26L72.84 15.26Q73.44 15.22 73.74 15.07Q74.04 14.93 74.16 14.57Q74.28 14.21 74.28 13.49L74.28 13.49L74.28 7.08Q74.28 6.38 74.16 6.02Q74.04 5.66 73.74 5.52Q73.44 5.38 72.84 5.33L72.84 5.33Q72.72 4.97 72.72 4.25L72.72 4.25Q74.26 4.30 75.41 4.30L75.41 4.30Q76.37 4.30 78.05 4.25L78.05 4.25Q78.05 4.99 77.95 5.33L77.95 5.33Q77.09 5.38 76.79 5.71Q76.49 6.05 76.49 7.08L76.49 7.08L76.49 13.49Q76.49 14.52 76.79 14.87Q77.09 15.22 77.95 15.26L77.95 15.26Q78.05 15.62 78.05 16.34L78.05 16.34Q76.42 16.30 75.41 16.30L75.41 16.30Q74.21 16.30 72.72 16.34L72.72 16.34ZM92.95 5.06Q92.71 5.98 92.71 7.80L92.71 7.80Q92.26 8.02 91.51 8.02L91.51 8.02Q91.44 6.46 90.66 5.82Q89.88 5.18 88.42 5.18L88.42 5.18Q86.02 5.18 84.82 6.50Q83.62 7.82 83.62 9.74L83.62 9.74Q83.62 11.26 84.25 12.47Q84.89 13.68 86.08 14.38Q87.26 15.07 88.90 15.07L88.90 15.07Q89.88 15.07 90.91 14.84Q91.94 14.62 92.81 14.18L92.81 14.18Q92.95 14.30 93.07 14.53Q93.19 14.76 93.22 14.95L93.22 14.95Q91.87 15.72 90.67 16.09Q89.47 16.46 87.96 16.46L87.96 16.46Q85.99 16.46 84.46 15.67Q82.92 14.88 82.06 13.46Q81.19 12.05 81.19 10.22L81.19 10.22Q81.19 8.28 82.18 6.90Q83.16 5.52 84.78 4.82Q86.40 4.13 88.27 4.13L88.27 4.13Q89.54 4.13 90.65 4.36Q91.75 4.58 92.95 5.06L92.95 5.06ZM101.71 16.46Q100.39 16.46 99.32 16.20Q98.26 15.94 97.01 15.41L97.01 15.41Q97.27 13.80 97.20 12.62L97.20 12.62Q97.73 12.46 98.50 12.46L98.50 12.46Q98.54 13.94 99.44 14.62Q100.34 15.29 101.98 15.29L101.98 15.29Q103.37 15.29 104.17 14.86Q104.98 14.42 104.98 13.70L104.98 13.70Q104.98 13.20 104.58 12.83Q104.18 12.46 103.62 12.20Q103.06 11.95 101.98 11.57L101.98 11.57Q100.49 11.06 99.59 10.62Q98.69 10.18 98.03 9.40Q97.37 8.62 97.37 7.44L97.37 7.44Q97.37 5.83 98.58 4.99Q99.79 4.15 101.90 4.15L101.90 4.15Q103.03 4.15 104.15 4.37Q105.26 4.58 105.89 4.92L105.89 4.92Q105.86 5.18 105.86 5.74L105.86 5.74Q105.86 6.82 106.01 7.44L106.01 7.44Q105.50 7.70 104.69 7.70L104.69 7.70Q104.35 6.34 103.60 5.80Q102.84 5.26 101.74 5.26L101.74 5.26Q100.68 5.26 100.02 5.62Q99.36 5.98 99.36 6.67L99.36 6.67Q99.36 7.46 100.13 7.94Q100.90 8.42 102.53 9L102.53 9Q103.92 9.48 104.81 9.91Q105.70 10.34 106.32 11.08Q106.94 11.81 106.94 12.91L106.94 12.91Q106.94 14.50 105.65 15.48Q104.35 16.46 101.71 16.46L101.71 16.46ZM120.31 12.89Q120.96 13.01 121.37 13.42L121.37 13.42Q120.94 14.54 120.72 16.32L120.72 16.32L116.09 16.30Q112.63 16.30 110.52 16.34L110.52 16.34Q110.52 15.60 110.64 15.26L110.64 15.26Q111.24 15.22 111.54 15.07Q111.84 14.93 111.96 14.54Q112.08 14.16 112.08 13.39L112.08 13.39L112.08 7.08Q112.08 6.38 111.95 6.02Q111.82 5.66 111.52 5.52Q111.22 5.38 110.64 5.33L110.64 5.33Q110.52 4.97 110.52 4.25L110.52 4.25Q112.25 4.30 114.29 4.30L114.29 4.30Q118.70 4.30 120.19 4.25L120.19 4.25Q120.46 6.50 120.65 7.22L120.65 7.22Q120.24 7.49 119.57 7.49L119.57 7.49Q119.47 6.48 118.74 5.90Q118.01 5.33 116.16 5.33L116.16 5.33L114.29 5.33L114.29 9.74L115.49 9.74Q116.76 9.74 117.25 9.46Q117.74 9.17 117.77 8.40L117.77 8.40Q118.30 8.23 118.87 8.23L118.87 8.23Q118.82 8.83 118.82 10.25L118.82 10.25Q118.82 11.78 118.87 12.34L118.87 12.34Q118.22 12.34 117.82 12.19L117.82 12.19Q117.74 11.40 117.25 11.11Q116.76 10.82 115.49 10.82L115.49 10.82L114.29 10.82L114.29 13.34Q114.29 14.11 114.44 14.51Q114.60 14.90 115.00 15.06Q115.39 15.22 116.18 15.22L116.18 15.22L116.33 15.22Q117.72 15.22 118.48 14.98Q119.23 14.74 119.60 14.27Q119.98 13.80 120.31 12.89L120.31 12.89Z" transform="translate(52 17.768)"></path></svg>